<svg xmlns="http://www.w3.org/2000/svg" viewBox="0 0 260 420"><g stroke="#111" stroke-width="5" fill="none" stroke-linecap="round"><path d="M72 35 C120 20 170 40 190 88 L205 405"/><path d="M70 35 C35 75 22 185 28 395"/><path d="M75 90 C110 125 158 125 192 92"/><path d="M70 160 C118 190 155 188 198 162"/><path d="M82 230 C126 250 160 252 203 232"/><circle cx="83" cy="145" r="8"/><circle cx="88" cy="210" r="8"/><path d="M55 120 C25 145 10 210 8 340"/><path d="M165 118 C145 180 148 310 164 405"/></g></svg>
